<svg width="20" height="20" viewBox="0 0 20 20" fill="none" xmlns="http://www.w3.org/2000/svg">
<g id="Category">
<g id="Stroke 1">
<path fill-rule="evenodd" clip-rule="evenodd" d="M19.0004 4.6738C19.0004 6.7024 17.3552 8.3476 15.3266 8.3476C13.298 8.3476 11.6537 6.7024 11.6537 4.6738C11.6537 2.6452 13.298 1 15.3266 1C17.3552 1 19.0004 2.6452 19.0004 4.6738Z" stroke="#3E4554" stroke-width="1.5" stroke-linecap="round" stroke-linejoin="round"/>
<path fill-rule="evenodd" clip-rule="evenodd" d="M19.0004 4.6738C19.0004 6.7024 17.3552 8.3476 15.3266 8.3476C13.298 8.3476 11.6537 6.7024 11.6537 4.6738C11.6537 2.6452 13.298 1 15.3266 1C17.3552 1 19.0004 2.6452 19.0004 4.6738Z" stroke="black" stroke-opacity="0.2" stroke-width="1.5" stroke-linecap="round" stroke-linejoin="round"/>
</g>
<g id="Stroke 3">
<path fill-rule="evenodd" clip-rule="evenodd" d="M8.3467 4.6738C8.3467 6.7024 6.7024 8.3476 4.6729 8.3476C2.6452 8.3476 1 6.7024 1 4.6738C1 2.6452 2.6452 1 4.6729 1C6.7024 1 8.3467 2.6452 8.3467 4.6738Z" stroke="#3E4554" stroke-width="1.5" stroke-linecap="round" stroke-linejoin="round"/>
<path fill-rule="evenodd" clip-rule="evenodd" d="M8.3467 4.6738C8.3467 6.7024 6.7024 8.3476 4.6729 8.3476C2.6452 8.3476 1 6.7024 1 4.6738C1 2.6452 2.6452 1 4.6729 1C6.7024 1 8.3467 2.6452 8.3467 4.6738Z" stroke="black" stroke-opacity="0.2" stroke-width="1.5" stroke-linecap="round" stroke-linejoin="round"/>
</g>
<g id="Stroke 5">
<path fill-rule="evenodd" clip-rule="evenodd" d="M19.0004 15.2619C19.0004 17.2905 17.3552 18.9348 15.3266 18.9348C13.298 18.9348 11.6537 17.2905 11.6537 15.2619C11.6537 13.2333 13.298 11.5881 15.3266 11.5881C17.3552 11.5881 19.0004 13.2333 19.0004 15.2619Z" stroke="#3E4554" stroke-width="1.5" stroke-linecap="round" stroke-linejoin="round"/>
<path fill-rule="evenodd" clip-rule="evenodd" d="M19.0004 15.2619C19.0004 17.2905 17.3552 18.9348 15.3266 18.9348C13.298 18.9348 11.6537 17.2905 11.6537 15.2619C11.6537 13.2333 13.298 11.5881 15.3266 11.5881C17.3552 11.5881 19.0004 13.2333 19.0004 15.2619Z" stroke="black" stroke-opacity="0.2" stroke-width="1.5" stroke-linecap="round" stroke-linejoin="round"/>
</g>
<g id="Stroke 7">
<path fill-rule="evenodd" clip-rule="evenodd" d="M8.3467 15.2619C8.3467 17.2905 6.7024 18.9348 4.6729 18.9348C2.6452 18.9348 1 17.2905 1 15.2619C1 13.2333 2.6452 11.5881 4.6729 11.5881C6.7024 11.5881 8.3467 13.2333 8.3467 15.2619Z" stroke="#3E4554" stroke-width="1.5" stroke-linecap="round" stroke-linejoin="round"/>
<path fill-rule="evenodd" clip-rule="evenodd" d="M8.3467 15.2619C8.3467 17.2905 6.7024 18.9348 4.6729 18.9348C2.6452 18.9348 1 17.2905 1 15.2619C1 13.2333 2.6452 11.5881 4.6729 11.5881C6.7024 11.5881 8.3467 13.2333 8.3467 15.2619Z" stroke="black" stroke-opacity="0.2" stroke-width="1.5" stroke-linecap="round" stroke-linejoin="round"/>
</g>
</g>
</svg>
