<svg width="18" height="18" viewBox="0 0 18 18" fill="none" xmlns="http://www.w3.org/2000/svg">
<g id="Iconly/Bold/Star">
<g id="Star">
<path id="Star_2" d="M13.4308 10.6367C13.2481 10.8137 13.1641 11.0698 13.2057 11.3209L13.8329 14.7916C13.8858 15.0858 13.7616 15.3835 13.5154 15.5535C13.2742 15.7298 12.9532 15.751 12.6901 15.6099L9.56574 13.9804C9.4571 13.9225 9.33647 13.8915 9.21302 13.888H9.02185C8.95554 13.8979 8.89064 13.919 8.83139 13.9515L5.70635 15.5888C5.55186 15.6664 5.37691 15.6939 5.2055 15.6664C4.78788 15.5874 4.50924 15.1895 4.57767 14.7698L5.2055 11.2991C5.24712 11.0458 5.16317 10.7883 4.98046 10.6085L2.43317 8.13946C2.22013 7.93277 2.14606 7.62238 2.24341 7.34233C2.33794 7.06298 2.57919 6.85911 2.87053 6.81326L6.3765 6.30465C6.64315 6.27714 6.87736 6.11489 6.99728 5.87504L8.54216 2.70768C8.57884 2.63714 8.62611 2.57224 8.68325 2.51721L8.74674 2.46783C8.77989 2.43115 8.81798 2.40082 8.86031 2.37613L8.9372 2.34791L9.05712 2.29853H9.35411C9.61935 2.32604 9.85284 2.48476 9.97488 2.72179L11.5402 5.87504C11.6531 6.10572 11.8725 6.26585 12.1257 6.30465L15.6317 6.81326C15.928 6.85559 16.1756 7.06016 16.2736 7.34233C16.366 7.62521 16.2863 7.93559 16.0691 8.13946L13.4308 10.6367Z" fill="#F9B023"/>
</g>
</g>
</svg>
