<svg width="18" height="18" viewBox="0 0 18 18" fill="none" xmlns="http://www.w3.org/2000/svg">
<g id="Iconly/Bulk/Star">
<g id="Star">
<path id="Fill 1" d="M9.87444 2.73129L11.4451 5.88756C11.5608 6.11624 11.7816 6.27504 12.0363 6.31033L15.5642 6.82414C15.7703 6.85308 15.9572 6.96177 16.0835 7.12763C16.2084 7.29137 16.262 7.49887 16.2317 7.70284C16.207 7.87223 16.1273 8.02891 16.0052 8.1489L13.4489 10.6269C13.2619 10.7998 13.1773 11.056 13.2224 11.3066L13.8518 14.7903C13.9188 15.211 13.6401 15.6076 13.2224 15.6874C13.0503 15.7149 12.8739 15.686 12.7186 15.6069L9.57175 13.9674C9.3382 13.8495 9.06232 13.8495 8.82878 13.9674L5.6819 15.6069C5.29524 15.8123 4.81616 15.6726 4.60095 15.2914C4.52122 15.1397 4.493 14.9668 4.51911 14.7981L5.14848 11.3136C5.19364 11.0638 5.10826 10.8062 4.92199 10.6333L2.36568 8.15666C2.06158 7.86305 2.05241 7.37959 2.34522 7.0754C2.35157 7.06905 2.35863 7.06199 2.36568 7.05493C2.48704 6.93142 2.6465 6.85308 2.81866 6.83261L6.34655 6.31809C6.60056 6.2821 6.82141 6.12471 6.93783 5.89462L8.452 2.73129C8.58676 2.46027 8.86617 2.29159 9.16957 2.29864H9.26412C9.5273 2.3304 9.75661 2.49344 9.87444 2.73129Z" fill="#1E222B"/>
<path id="Fill 4" d="M9.1801 13.8795C9.04346 13.8837 8.91034 13.9204 8.7906 13.9861L5.65911 15.6219C5.27595 15.8048 4.81743 15.6629 4.6026 15.2965C4.52301 15.1468 4.49413 14.9752 4.5209 14.8072L5.14635 11.3301C5.18861 11.0774 5.10409 10.8204 4.92026 10.6425L2.36281 8.1665C2.05924 7.86928 2.0536 7.38143 2.35083 7.07714C2.35506 7.0729 2.35858 7.06937 2.36281 7.06584C2.48395 6.94582 2.64031 6.86675 2.80865 6.84204L6.3395 6.32242C6.59518 6.28994 6.81704 6.13038 6.92974 5.89882L8.46449 2.69567C8.61029 2.43727 8.88991 2.28336 9.18573 2.2996C9.1801 2.50928 9.1801 13.7369 9.1801 13.8795Z" fill="#F9B023"/>
</g>
</g>
</svg>
