<svg width="16" height="16" viewBox="0 0 16 16" fill="none" xmlns="http://www.w3.org/2000/svg">
<g id="Search">
<path id="Search_2" d="M15.3167 14.4549L12.7386 11.9344L12.6782 11.8425C12.5658 11.7306 12.4122 11.6676 12.2519 11.6676C12.0915 11.6676 11.9379 11.7306 11.8256 11.8425C9.63461 13.8525 6.25861 13.9618 3.9365 12.0978C1.6144 10.2338 1.06675 6.97503 2.65676 4.48263C4.24678 1.99023 7.48105 1.03764 10.2146 2.2566C12.9482 3.47557 14.3329 6.48784 13.4503 9.2957C13.3867 9.49854 13.4387 9.71913 13.5866 9.87437C13.7345 10.0296 13.9558 10.0959 14.1673 10.0483C14.3787 10.0007 14.5482 9.84643 14.6117 9.64358C15.6668 6.31148 14.0733 2.72567 10.8621 1.20579C7.65087 -0.314079 3.78563 0.688118 1.76679 3.56406C-0.252047 6.44001 0.181384 10.3266 2.7867 12.7096C5.39201 15.0926 9.38734 15.2569 12.1881 13.0962L14.4707 15.3279C14.7065 15.5574 15.0876 15.5574 15.3234 15.3279C15.5589 15.0952 15.5589 14.7204 15.3234 14.4877L15.3167 14.4549Z" fill="#F8F9FB"/>
</g>
</svg>
